<svg
   xmlns="http://www.w3.org/2000/svg"
   width="32"
   height="32"
   viewBox="0 0 32 32"
   id="svg2">
  <g
     id="layer1"
     transform="matrix(0.25059221,0,0,0.25059221,-0.1639305,1.6427671)">
    <path
       d="m 42.179061,24.881644 c 3.53645,0 7.803824,0.730972 12.802108,2.192628 5.045342,1.461835 8.393218,2.192707 10.043648,2.192628 2.121833,0 5.587593,-0.825099 10.397282,-2.47555 4.809564,-1.650268 8.982614,-2.475455 12.519195,-2.475546 5.799754,0 10.963036,1.556149 15.489836,4.668174 2.54618,1.791906 5.06887,4.220325 7.56809,7.285184 -3.77235,3.206492 -6.53081,6.05927 -8.27538,8.558336 -3.15937,4.526777 -4.738999,9.525039 -4.738907,14.994745 0,5.98852 1.673847,11.387517 5.021817,16.197125 3.34778,4.80965 7.16718,7.851041 11.45823,9.124173 -1.79191,5.799863 -4.76257,11.859047 -8.91195,18.177549 -6.27148,9.47784 -12.495696,14.2167 -18.672688,14.2167 -2.452048,0 -5.847082,-0.778 -10.185098,-2.33405 -4.291016,-1.55605 -7.921806,-2.3341 -10.892407,-2.33414 -2.970709,0 -6.436468,0.80164 -10.397282,2.40485 -3.91377,1.65035 -7.096611,2.47555 -9.548541,2.47555 -7.403093,0 -14.664684,-6.27139 -21.7848,-18.814138 C 16.952058,86.534576 13.39199,74.369056 13.392,62.439213 13.39199,51.358299 16.103299,42.328432 21.525939,35.349656 26.995696,28.371072 33.880061,24.881731 42.179061,24.881644 M 86.738879,-2.9859291 c 0.188525,0.6131113 0.306429,1.1553709 0.353625,1.6267963 0.04711,0.4716392 0.07066,0.94317361 0.07075,1.41459467 0,3.01791913 -0.707387,6.31863423 -2.121903,9.90218413 -1.414669,3.583747 -3.654441,6.908043 -6.71933,9.97291 -2.640652,2.593525 -5.257657,4.338186 -7.851016,5.234006 -1.650429,0.518779 -4.149543,0.919584 -7.497372,1.202415 0.09426,-7.167201 1.956806,-13.367844 5.587662,-18.6019586 3.677883,-5.2339013 9.737079,-8.8175432 18.177573,-10.7509475"
       id="text1535"
       />
  </g>
</svg>
