<?xml version="1.0" encoding="UTF-8" standalone="no"?>
<!-- Generator: Adobe Illustrator 12.0.1, SVG Export Plug-In . SVG Version: 6.00 Build 51448)  -->

<svg xmlns="http://www.w3.org/2000/svg" width="32" height="32" viewBox="0 0 32 32">
<g
   transform="matrix(1.2078191,0,0,1.2078191,-3.2775108,-3.3598473)"><path
     d="m 27.404308,5.0212664 c 1.243083,1.2425011 -2.203012,6.7043896 -2.785597,7.2869756 -0.582586,0.581713 -2.062308,0.04651 -3.305103,-1.196278 C 20.070526,9.8694626 19.535035,8.3894502 20.117621,7.8068643 20.700207,7.2239877 26.161517,3.7781839 27.404308,5.0212664 z"
     /><path
     d="M 9.9726619,6.335864 C 8.0748971,5.2590685 5.3747684,4.061337 4.5157158,4.9203895 3.6450348,5.7904892 4.8869544,8.5516673 5.9750877,10.452921 6.9428664,8.7694102 8.3205483,7.3521915 9.9726619,6.335864 z"
     /><path
     d="m 25.508579,11.879733 c 0.174717,0.592761 0.14303,1.08261 -0.140123,1.365181 C 24.706215,13.907155 22.918048,13.20247 21.30634,11.668095 21.193544,11.567218 21.082202,11.462562 20.972604,11.352673 20.390018,10.769506 19.936217,10.148546 19.646087,9.5772975 19.081525,8.5647493 18.940239,7.6699392 19.367004,7.2434654 19.599573,7.0108962 19.971684,6.947521 20.425485,7.0295017 20.72172,6.8422835 21.070864,6.6338433 21.454022,6.4201703 19.896099,5.6076316 18.125084,5.1485981 16.245925,5.1485981 c -6.231691,0 -11.283967,5.0514039 -11.283967,11.2836769 0,6.231693 5.052276,11.283387 11.283967,11.283387 6.231983,0 11.284262,-5.051985 11.284262,-11.283387 0,-2.012596 -0.528223,-3.899895 -1.451232,-5.536019 -0.199429,0.363971 -0.393333,0.697417 -0.570376,0.983477 z"
     /></g>
</svg>
