<?xml version="1.0" encoding="UTF-8" standalone="no"?>
<!-- Generator: Adobe Illustrator 14.0.0, SVG Export Plug-In  -->

<svg
   xmlns:dc="http://purl.org/dc/elements/1.1/"
   xmlns:cc="http://creativecommons.org/ns#"
   xmlns:rdf="http://www.w3.org/1999/02/22-rdf-syntax-ns#"
   xmlns:svg="http://www.w3.org/2000/svg"
   xmlns="http://www.w3.org/2000/svg"
   xmlns:sodipodi="http://sodipodi.sourceforge.net/DTD/sodipodi-0.dtd"
   xmlns:inkscape="http://www.inkscape.org/namespaces/inkscape"
   version="1.1"
   x="0px"
   y="0px"
   width="32"
   height="32"
   viewBox="-0.866 -0.866 32 32"
   enable-background="new -0.866 -0.866 285 285"
   xml:space="preserve"
   id="svg3035"
   inkscape:version="0.48.0 r9654"
   sodipodi:docname="ubuntu_logo.svg"
   inkscape:export-filename="/Users/david/projects/node.js/node_mdns/doc/pages/images/ubuntu_logo.png"
   inkscape:export-xdpi="90"
   inkscape:export-ydpi="90"><metadata
   id="metadata3045"><rdf:RDF><cc:Work
       rdf:about=""><dc:format>image/svg+xml</dc:format><dc:type
         rdf:resource="http://purl.org/dc/dcmitype/StillImage" /><dc:title /></cc:Work></rdf:RDF></metadata><sodipodi:namedview
   pagecolor="#ffffff"
   bordercolor="#666666"
   borderopacity="1"
   objecttolerance="10"
   gridtolerance="10"
   guidetolerance="10"
   inkscape:pageopacity="0"
   inkscape:pageshadow="2"
   inkscape:window-width="1289"
   inkscape:window-height="1060"
   id="namedview3043"
   showgrid="false"
   inkscape:zoom="26.3125"
   inkscape:cx="16"
   inkscape:cy="16"
   inkscape:window-x="0"
   inkscape:window-y="0"
   inkscape:window-maximized="0"
   inkscape:current-layer="svg3035" />
<defs
   id="defs3037">
</defs>

<path
   d="m 3.4314834,12.360699 c -1.5226803,0 -2.7564984,1.233822 -2.7564984,2.756501 0,1.522091 1.2338181,2.756058 2.7564984,2.756058 1.5220973,0 2.7560608,-1.233967 2.7560608,-2.756058 0,-1.522834 -1.2338181,-2.756501 -2.7560608,-2.756501 z M 23.11241,24.888542 c -1.318452,0.761123 -1.769735,2.446225 -1.008905,3.764095 0.761267,1.318449 2.446223,1.770019 3.764674,1.008905 1.318016,-0.760979 1.769591,-2.446081 1.008468,-3.764384 -0.760975,-1.317872 -2.446223,-1.769595 -3.764237,-1.008616 z M 9.4187776,15.116756 c 0,-2.724155 1.3537034,-5.1303157 3.4238094,-6.5873014 L 10.827399,5.1538649 C 8.4151165,6.7655455 6.6207637,9.2293931 5.8753754,12.115104 c 0.8706637,0.709699 1.4269743,1.790416 1.4269743,3.001941 0,1.211247 -0.5563106,2.291964 -1.4271208,3.001519 0.7452438,2.885999 2.539742,5.349847 4.9520231,6.961382 l 2.015335,-3.375878 C 10.772481,20.247372 9.4187776,17.841355 9.4187776,15.116756 z M 17.470642,7.0648956 c 4.20649,0 7.656957,3.2252594 8.018651,7.3377974 l 3.928409,-0.05737 C 29.2244,11.308985 27.898079,8.5823539 25.859731,6.5783806 24.811788,6.9743157 23.60113,6.914297 22.554788,6.3100664 21.507136,5.7052375 20.84973,4.6849729 20.669684,3.5777437 19.651165,3.2958741 18.579185,3.1421935 17.470788,3.1421935 c -1.906228,0 -3.707135,0.4474951 -5.306875,1.2399315 l 1.914968,3.431966 c 1.030901,-0.4796845 2.179648,-0.7491749 3.391761,-0.7491749 z m 0,16.1038764 c -1.212258,0 -2.36086,-0.26949 -3.391906,-0.749175 l -1.915259,3.432256 c 1.599885,0.792148 3.400939,1.239785 5.307165,1.239785 1.108397,0 2.180377,-0.153674 3.199042,-0.435545 0.180046,-1.107234 0.837597,-2.127497 1.885397,-2.73276 1.04634,-0.603942 2.256996,-0.66396 3.304942,-0.267881 2.038202,-2.004118 3.36452,-4.730749 3.557531,-7.767079 l -3.928405,-0.05737 c -0.361405,4.113116 -3.812017,7.337787 -8.018507,7.337787 z M 23.111973,5.344837 C 24.430279,6.1062488 26.115526,5.6545254 26.876355,4.3366546 27.637624,3.0182045 27.186341,1.3331038 25.86789,0.57183645 24.549728,-0.18913894 22.864627,0.2624357 22.10336,1.5808876 21.342384,2.8987566 21.793958,4.5840029 23.111973,5.344837 z"
   id="path3041"
   inkscape:connector-curvature="0" />
</svg>
