<svg xmlns="http://www.w3.org/2000/svg" width="32" height="32" viewBox="-73 14.917 32 32" >
  <g transform="matrix(0.42393431,0,0,0.42393431,-3.3306204,12.621374)">
     <g transform="translate(-88.690607,-2.3097081)">
       <path style="fill:#000000;" d="m -64.246,45.578 c 12.532,-5.162 18.598,-2.408 24.03,1.28 l -6.274,21.563 c -5.452,-3.666 -11.38,-6.686 -23.962,-1.482 l 6.132,-21.33 0.074,-0.031 z"/>
     </g>
     <path d="m -125.61976,46.632292 c 5.44803,3.666 11.02005,6.354 23.82511,1.976 l -5.97703,20.791 c -12.56805,5.198 -18.60308,2.255 -24.04511,-1.435 l 6.19703,-21.332 z" style="fill:#000000;" />
     <path style="fill:#000000;" d="m -127.86177,40.662292 c -3.27902,-2.209 -6.80803,-4.275 -11.82104,-4.312 -3.30601,-0.026 -7.24402,0.915 -12.24304,2.979 l 6.19302,-21.462 c 12.57403,-5.2 18.61606,-2.252 24.06309,1.432 l -6.19203,21.363 z"/>
     <path style="fill:#000000;" d="m -94.374635,22.940292 c -12.557045,5.189 -18.590075,2.271 -24.026085,-1.391 l -6.19503,21.481 c 5.43202,3.683 11.99604,6.703 24.0351,1.317 l 6.186015,-21.407 z"/>
  </g>
</svg>
